<svg width="144" height="144" viewBox="0 0 144 144" fill="none" xmlns="http://www.w3.org/2000/svg">
<g clip-path="url(#clip0_228_28)">
<path fill-rule="evenodd" clip-rule="evenodd" d="M42.2615 0.88365C30.5408 1.41249 20.3819 4.27807 12.1788 12.4465C3.947 20.6579 1.11702 30.8571 0.58686 42.4559C0.257302 49.6954 -1.66978 104.388 3.91836 118.731C7.68676 128.407 15.1088 135.847 24.8737 139.628C29.4302 141.4 34.6316 142.6 42.2615 142.95C106.059 145.837 129.709 144.265 139.681 118.731C141.451 114.186 142.669 108.989 143.006 101.378C145.921 37.4163 142.533 23.5523 131.414 12.4465C122.595 3.64915 112.221 -2.33943 42.2615 0.88365ZM42.8489 130.086C35.8637 129.772 32.0738 128.608 29.5448 127.629C23.183 125.156 18.4044 120.397 15.9471 114.073C11.6915 103.174 13.1029 51.4118 13.4826 43.036C13.8552 34.8317 15.5172 27.3336 21.306 21.545C28.4703 14.3984 37.7264 10.8959 100.751 13.7403C108.975 14.1119 116.491 15.7706 122.294 21.545C129.458 28.6915 133.011 38.0189 130.117 100.801C129.802 107.769 128.634 111.55 127.653 114.073C121.169 130.688 106.253 132.995 42.8489 130.086ZM101.446 33.7653C101.446 38.4963 105.293 42.3434 110.043 42.3434C114.793 42.3434 118.647 38.4963 118.647 33.7653C118.647 29.0343 114.793 25.1907 110.043 25.1907C105.293 25.1907 101.446 29.0343 101.446 33.7653ZM35.0112 71.9133C35.0112 92.1809 51.4819 108.613 71.7998 108.613C92.1177 108.613 108.588 92.1809 108.588 71.9133C108.588 51.6458 92.1177 35.2243 71.7998 35.2243C51.4819 35.2243 35.0112 51.6458 35.0112 71.9133ZM47.9212 71.9133C47.9212 58.7638 58.6104 48.095 71.7998 48.095C84.9892 48.095 95.6784 58.7638 95.6784 71.9133C95.6784 85.0701 84.9892 95.7422 71.7998 95.7422C58.6104 95.7422 47.9212 85.0701 47.9212 71.9133Z" fill="black"/>
</g>
<defs>
<clipPath id="clip0_228_28">
<rect width="144" height="144" fill="white"/>
</clipPath>
</defs>
</svg>
