<svg width="145" height="145" viewBox="0 0 145 145" fill="none" xmlns="http://www.w3.org/2000/svg">
<g clip-path="url(#clip0_228_20)">
<path d="M36.2829 46.16C41.738 46.16 46.1603 41.7378 46.1603 36.2827C46.1603 30.8275 41.738 26.4053 36.2829 26.4053C30.8278 26.4053 26.4055 30.8275 26.4055 36.2827C26.4055 41.7378 30.8278 46.16 36.2829 46.16Z" fill="black"/>
<path d="M26.4055 59.33C26.4055 55.6933 29.3537 52.7451 32.9904 52.7451H39.5754C43.2121 52.7451 46.1603 55.6933 46.1603 59.33V112.009C46.1603 115.646 43.2121 118.594 39.5754 118.594H32.9904C29.3537 118.594 26.4055 115.646 26.4055 112.009V59.33Z" fill="black"/>
<path d="M65.915 118.594H72.4999C76.1368 118.594 79.0848 115.646 79.0848 112.009V82.3773C79.0848 72.4999 98.8396 65.915 98.8396 79.0848V112.012C98.8396 115.649 101.788 118.594 105.425 118.594H112.009C115.646 118.594 118.594 115.646 118.594 112.009V72.4999C118.594 59.33 108.717 52.7451 95.5472 52.7451C82.3773 52.7451 79.0848 62.6225 79.0848 62.6225V59.33C79.0848 55.6933 76.1368 52.7451 72.4999 52.7451H65.915C62.2781 52.7451 59.3301 55.6933 59.3301 59.33V112.009C59.3301 115.646 62.2781 118.594 65.915 118.594Z" fill="black"/>
<path fill-rule="evenodd" clip-rule="evenodd" d="M125.179 0.065918C136.09 0.065918 144.934 8.91046 144.934 19.8207V125.179C144.934 136.09 136.09 144.934 125.179 144.934H19.8207C8.91046 144.934 0.065918 136.09 0.065918 125.179V19.8207C0.065918 8.91046 8.91046 0.065918 19.8207 0.065918H125.179ZM125.179 13.2358C128.816 13.2358 131.764 16.184 131.764 19.8207V125.179C131.764 128.816 128.816 131.764 125.179 131.764H19.8207C16.184 131.764 13.2358 128.816 13.2358 125.179V19.8207C13.2358 16.184 16.184 13.2358 19.8207 13.2358H125.179Z" fill="black"/>
</g>
<defs>
<clipPath id="clip0_228_20">
<rect width="145" height="145" fill="white"/>
</clipPath>
</defs>
</svg>
