<svg width="226" height="98" viewBox="0 0 226 98" fill="none" xmlns="http://www.w3.org/2000/svg">
<path fill-rule="evenodd" clip-rule="evenodd" d="M0 53.0496V60.0375C0 74.5731 5.98806 87.6919 15.6014 97H36.3577V62.4303H20.8472V53.0496H0ZM224.537 60.0375V53.0496H199.218V97H208.936C218.549 87.6919 224.537 74.5731 224.537 60.0375ZM79.0117 97H45.664V62.4303H61.1746V53.0496H77.8312C74.6944 53.3057 71.9754 54.5993 69.6743 56.9305C67.1099 59.5285 65.8277 62.6712 65.8277 66.3586C65.8277 69.669 66.8721 72.5498 68.9608 75.0011C66.8721 77.4524 65.8277 80.3332 65.8277 83.6435C65.8277 87.3309 67.1099 90.4841 69.6743 93.103C72.2594 95.701 75.3719 97 79.0117 97ZM106.155 62.4303V53.0496H129.558C124.599 53.3864 120.313 55.5181 116.702 59.4447C112.773 63.7397 110.808 68.9252 110.808 75.0011C110.808 81.077 112.773 86.2624 116.702 90.5575C120.652 94.8525 125.409 97 130.972 97H106.155V87.5719H79.0117C77.9363 87.5719 77.016 87.1948 76.2508 86.4405C75.5063 85.6653 75.134 84.733 75.134 83.6435C75.134 82.554 75.5063 81.6322 76.2508 80.8779C77.016 80.1027 77.9363 79.7151 79.0117 79.7151H106.155V70.287H79.0117C77.9363 70.287 77.016 69.9099 76.2508 69.1556C75.5063 68.3804 75.134 67.4481 75.134 66.3586C75.134 65.2692 75.5063 64.3473 76.2508 63.5931C77.016 62.8179 77.9363 62.4303 79.0117 62.4303H106.155ZM151.136 62.4303V53.0496H155.789V97H151.136V87.5719H130.972C127.973 87.5719 125.409 86.3462 123.279 83.8949C121.169 81.4436 120.115 78.479 120.115 75.0011C120.115 71.5231 121.169 68.5585 123.279 66.1072C125.409 63.6559 127.973 62.4303 130.972 62.4303H151.136ZM165.095 70.287V53.0496H189.912V70.287H165.095ZM189.912 79.7151V97H165.095V79.7151H189.912Z" fill="white"/>
<path d="M192.015 22.9666C188.501 22.289 185.392 20.6681 182.689 18.1041C178.994 14.6243 177.147 10.4211 177.147 5.49441V0H185.257V5.49441C185.257 8.15005 186.311 10.4211 188.42 12.3075C190.528 14.1756 193.078 15.1096 196.07 15.1096C199.061 15.1096 201.611 14.1756 203.72 12.3075C205.829 10.4211 206.883 8.15005 206.883 5.49441V0H214.993V5.49441C214.993 10.4211 213.145 14.6243 209.451 18.1041C206.748 20.6681 203.639 22.289 200.125 22.9666V38.4609H192.015V22.9666Z" fill="white"/>
<path d="M148.763 15.1096H173.092V23.3513H148.763V15.1096ZM146.059 38.4609H137.949V11.6756C137.949 8.45224 139.067 5.70503 141.302 3.43401C143.554 1.14467 146.267 0 149.438 0H173.092V8.24162H149.438C148.501 8.24162 147.699 8.58044 147.032 9.25809C146.384 9.91741 146.059 10.7233 146.059 11.6756V38.4609Z" fill="white"/>
<path d="M125.785 0H133.895V38.4609H125.785V0Z" fill="white"/>
<path d="M104.159 0C109.006 0 113.142 1.87726 116.567 5.63177C120.009 9.38629 121.73 13.9192 121.73 19.2304C121.73 24.5417 120.009 29.0746 116.567 32.8291C113.142 36.5836 109.006 38.4609 104.159 38.4609H86.5874V30.2193H104.159C106.772 30.2193 108.997 29.1479 110.836 27.005C112.692 24.8622 113.62 22.2707 113.62 19.2304C113.62 16.1902 112.692 13.5987 110.836 11.4559C108.997 9.31303 106.772 8.24162 104.159 8.24162H86.5874V0H104.159Z" fill="white"/>
<path d="M44.687 20.604V0H52.7968V20.604C52.7968 23.2597 53.8511 25.5307 55.9596 27.4171C58.0682 29.2852 60.6182 30.2193 63.6098 30.2193C66.6015 30.2193 69.1515 29.2852 71.2601 27.4171C73.3686 25.5307 74.4229 23.2597 74.4229 20.604V0H82.5327V20.604C82.5327 25.5307 80.6855 29.7431 76.991 33.2412C73.2965 36.721 68.8362 38.4609 63.6098 38.4609C58.3835 38.4609 53.9232 36.721 50.2287 33.2412C46.5342 29.7431 44.687 25.5307 44.687 20.604Z" fill="white"/>
<path d="M5.4895 0H13.5993V30.2193H40.6319V38.4609H5.4895V0Z" fill="white"/>
<path fill-rule="evenodd" clip-rule="evenodd" d="M225 93C225 95.2091 223.209 97 221 97C218.791 97 217 95.2091 217 93C217 90.7909 218.791 89 221 89C222.061 89 223.078 89.4214 223.828 90.1716C224.579 90.9217 225 91.9391 225 93Z" stroke="white" stroke-width="0.5" stroke-linecap="round" stroke-linejoin="round"/>
<path d="M222.333 91.3333C221.473 90.5454 220.167 90.6021 219.373 91.4618C218.579 92.3215 218.579 93.6785 219.373 94.5382C220.167 95.3979 221.473 95.4545 222.333 94.6667" stroke="white" stroke-width="0.5" stroke-linecap="round" stroke-linejoin="round"/>
</svg>
