<svg width="144" height="144" viewBox="0 0 144 144" fill="none" xmlns="http://www.w3.org/2000/svg">
<g clip-path="url(#clip0_228_25)">
<path d="M23.7978 -0.302734C10.5273 -0.302734 -0.303223 10.5278 -0.303223 23.7983V120.203C-0.303223 133.473 10.5273 144.304 23.7978 144.304H120.202C133.473 144.304 144.303 133.473 144.303 120.203V23.7983C144.303 10.5278 133.473 -0.302734 120.202 -0.302734H23.7978ZM23.7978 6.58328H120.202C129.752 6.58328 137.417 14.2486 137.417 23.7983V120.203C137.417 129.752 129.752 137.418 120.202 137.418H23.7978C14.2481 137.418 6.58279 129.752 6.58279 120.203V23.7983C6.58279 14.2486 14.2481 6.58328 23.7978 6.58328ZM30.9797 30.6843L62.7334 75.7998L30.6838 113.317H39.2914L66.6202 81.3207L89.1343 113.317H116.463L81.6027 63.7829L109.873 30.6843H101.265L77.7159 58.262L58.3086 30.6843H30.9797ZM44.16 37.5703H54.7109L103.283 106.43H92.7319L44.16 37.5703Z" fill="black"/>
<path fill-rule="evenodd" clip-rule="evenodd" d="M124.114 -0.934082C135.024 -0.934082 143.868 7.91046 143.868 18.8207V124.179C143.868 135.09 135.024 143.934 124.114 143.934H18.7548C7.84454 143.934 -1 135.09 -1 124.179V18.8207C-1 7.91046 7.84454 -0.934082 18.7548 -0.934082H124.114ZM124.114 12.2358C127.75 12.2358 130.698 15.184 130.698 18.8207V124.179C130.698 127.816 127.75 130.764 124.114 130.764H18.7548C15.118 130.764 12.1698 127.816 12.1698 124.179V18.8207C12.1698 15.184 15.118 12.2358 18.7548 12.2358H124.114Z" fill="black"/>
</g>
<defs>
<clipPath id="clip0_228_25">
<rect width="144" height="144" fill="white"/>
</clipPath>
</defs>
</svg>
